<?xml version="1.0" encoding="UTF-8"?>
<svg version="1.1" xmlns="http://www.w3.org/2000/svg" width="32" height="32">
<path d="M0 0 C10.56 0 21.12 0 32 0 C32 10.56 32 21.12 32 32 C21.44 32 10.88 32 0 32 C0 21.44 0 10.88 0 0 Z " fill="#271042" transform="translate(0,0)"/>
<path d="M0 0 C1.65 0.33 3.3 0.66 5 1 C5.33 2.32 5.66 3.64 6 5 C7.98 5 9.96 5 12 5 C12.66 3.35 13.32 1.7 14 0 C16.475 0.495 16.475 0.495 19 1 C18.67 2.65 18.34 4.3 18 6 C16.68 6 15.36 6 14 6 C14 8.64 14 11.28 14 14 C16.475 14.495 16.475 14.495 19 15 C18.67 16.65 18.34 18.3 18 20 C16.35 19.67 14.7 19.34 13 19 C13 17.68 13 16.36 13 15 C10.36 15 7.72 15 5 15 C4.67 16.65 4.34 18.3 4 20 C2.35 19.67 0.7 19.34 -1 19 C-0.67 17.35 -0.34 15.7 0 14 C1.32 14 2.64 14 4 14 C4 11.36 4 8.72 4 6 C2.35 5.67 0.7 5.34 -1 5 C-0.67 3.35 -0.34 1.7 0 0 Z " fill="#9E95A9" transform="translate(7,6)"/>
<path d="M0 0 C2.64 0 5.28 0 8 0 C8 2.64 8 5.28 8 8 C5.69 8 3.38 8 1 8 C-0.35439668 5.29120665 -0.06501451 2.99066732 0 0 Z " fill="#F8F7F8" transform="translate(12,12)"/>
<path d="M0 0 C1.65 0 3.3 0 5 0 C5 1.65 5 3.3 5 5 C3.35 4.67 1.7 4.34 0 4 C0 2.68 0 1.36 0 0 Z " fill="#E9E8EB" transform="translate(6,21)"/>
<path d="M0 0 C2.475 0.495 2.475 0.495 5 1 C5 2.32 5 3.64 5 5 C3.35 5 1.7 5 0 5 C0 3.35 0 1.7 0 0 Z " fill="#E9E5EB" transform="translate(21,6)"/>
<path d="M0 0 C1.32 0 2.64 0 4 0 C4 1.65 4 3.3 4 5 C2.35 5 0.7 5 -1 5 C-0.67 3.35 -0.34 1.7 0 0 Z " fill="#E9E5EB" transform="translate(7,6)"/>
<path d="M0 0 C0.99 0 1.98 0 3 0 C2.67 1.65 2.34 3.3 2 5 C0.68 5 -0.64 5 -2 5 C-1.125 1.125 -1.125 1.125 0 0 Z " fill="#E7E6E9" transform="translate(23,21)"/>
<path d="M0 0 C0.33 1.32 0.66 2.64 1 4 C2.32 4.33 3.64 4.66 5 5 C3.68 5 2.36 5 1 5 C1 7.64 1 10.28 1 13 C0.67 13 0.34 13 0 13 C-0.19658808 11.58456585 -0.38187546 10.16755969 -0.5625 8.75 C-0.66691406 7.96109375 -0.77132813 7.1721875 -0.87890625 6.359375 C-1.00027349 3.99467126 -0.69633257 2.2488963 0 0 Z " fill="#978AA3" transform="translate(20,7)"/>
</svg>
